<?xml version="1.0" standalone="no"?>
<!DOCTYPE svg PUBLIC "-//W3C//DTD SVG 20010904//EN"
 "http://www.w3.org/TR/2001/REC-SVG-20010904/DTD/svg10.dtd">
<svg version="1.0" xmlns="http://www.w3.org/2000/svg"
 width="300.000000pt" height="300.000000pt" viewBox="0 0 300.000000 300.000000"
 preserveAspectRatio="xMidYMid meet">
<metadata>
Created by potrace 1.10, written by Peter Selinger 2001-2011
</metadata>
<g transform="translate(0.000000,300.000000) scale(0.100000,-0.100000)"
fill="#9C2D41" stroke="none">
<path d="M862 2073 c-22 -19 -25 -40 -23 -145 1 -44 5 -58 16 -58 12 0 15 13
15 55 0 54 1 55 25 49 15 -4 25 -2 25 5 0 6 -11 11 -25 11 -22 0 -25 4 -25 35
0 23 6 38 16 42 18 7 36 -15 29 -34 -2 -7 2 -13 10 -13 23 0 18 37 -7 54 -28
20 -31 20 -56 -1z"/>
<path d="M1383 2064 c-23 -23 -25 -31 -21 -96 3 -54 8 -73 23 -84 22 -16 61
-18 70 -4 4 7 -2 9 -18 5 -34 -9 -47 17 -47 92 0 69 16 99 49 90 24 -6 29 8 5
17 -26 10 -34 7 -61 -20z"/>
<path d="M965 2070 c-7 -12 2 -30 16 -30 5 0 9 9 9 20 0 21 -15 27 -25 10z"/>
<path d="M1238 2039 c4 -39 3 -40 -16 -28 -33 21 -52 -3 -52 -65 0 -65 8 -76
53 -74 l37 1 0 104 c0 77 -3 103 -13 103 -9 0 -11 -12 -9 -41z m-10 -41 c17
-17 15 -93 -3 -108 -22 -19 -35 -3 -35 45 0 68 12 89 38 63z"/>
<path d="M1469 2070 c0 -5 0 -48 0 -95 0 -47 0 -89 0 -95 1 -5 10 -10 21 -10
19 0 20 7 20 105 0 98 -1 105 -20 105 -11 0 -20 -4 -21 -10z"/>
<path d="M1610 1975 l0 -105 39 0 c24 0 48 8 65 21 23 18 26 27 26 85 0 81
-19 104 -85 104 l-45 0 0 -105z m84 79 c11 -11 16 -35 16 -79 0 -55 -3 -66
-22 -79 -43 -31 -48 -23 -48 79 0 87 2 95 19 95 11 0 27 -7 35 -16z"/>
<path d="M1887 2074 c-8 -8 3 -34 14 -34 5 0 9 9 9 20 0 19 -11 26 -23 14z"/>
<path d="M2090 1975 c0 -87 3 -105 15 -105 11 0 15 11 15 36 0 45 24 42 28 -4
4 -40 22 -42 22 -3 0 19 -8 35 -20 44 l-20 14 20 26 c29 36 24 48 -5 12 l-25
-30 0 58 c0 44 -3 57 -15 57 -12 0 -15 -18 -15 -105z"/>
<path d="M962 1948 c3 -67 5 -73 26 -76 12 -2 22 1 22 7 0 6 -4 11 -10 11 -6
0 -10 28 -10 65 0 52 -3 65 -15 65 -13 0 -15 -13 -13 -72z"/>
<path d="M1030 1943 c0 -58 3 -73 15 -73 12 0 15 14 15 64 0 46 4 65 14 69 22
9 26 -2 26 -65 0 -44 4 -60 16 -65 8 -3 20 -1 27 6 8 8 8 11 -1 11 -8 0 -12
17 -12 46 0 67 -12 83 -60 81 l-40 -1 0 -73z"/>
<path d="M1780 1946 c0 -61 3 -76 15 -76 12 0 15 15 15 71 0 44 4 68 10 64 6
-3 10 -17 10 -31 0 -15 6 -24 15 -24 19 0 21 56 3 58 -7 1 -25 4 -40 8 l-28 6
0 -76z"/>
<path d="M1889 2016 c-2 -2 -3 -36 -1 -75 3 -62 6 -71 23 -71 10 0 19 5 19 10
0 6 -4 10 -10 10 -6 0 -10 28 -10 65 0 57 -6 75 -21 61z"/>
<path d="M1950 1944 c0 -59 3 -74 15 -74 12 0 15 14 15 65 0 37 4 65 10 65 6
0 13 0 18 0 4 0 9 -28 12 -62 4 -56 8 -63 28 -66 12 -2 22 1 22 7 0 6 -4 11
-10 11 -5 0 -10 21 -10 46 0 66 -12 83 -60 82 l-40 0 0 -74z"/>
<path d="M1485 1773 c7 -38 12 -50 19 -42 2 2 6 21 10 42 6 33 5 37 -15 37
-19 0 -21 -4 -14 -37z"/>
<path d="M1435 1779 c-7 -10 21 -49 36 -49 4 0 2 14 -4 30 -12 31 -21 37 -32
19z"/>
<path d="M1531 1760 c-5 -16 -6 -30 -2 -30 15 0 43 39 36 49 -11 19 -23 12
-34 -19z"/>
<path d="M1347 1626 c-69 -118 -73 -130 -51 -164 18 -27 27 -65 14 -57 -4 3
-15 -13 -25 -35 -19 -42 -28 -46 -69 -30 -14 5 -26 6 -26 1 0 -6 77 -46 152
-79 20 -9 5 15 -19 30 -17 10 -27 25 -27 41 -1 14 1 24 5 22 3 -3 14 13 24 35
13 30 23 39 35 35 35 -11 68 32 102 135 18 55 35 100 38 100 3 0 18 -42 35
-93 33 -102 71 -153 105 -142 12 4 20 2 20 -5 0 -6 5 -8 12 -4 7 4 8 3 4 -4
-4 -7 2 -32 13 -57 l20 -44 -35 -22 c-19 -12 -33 -23 -31 -25 6 -7 167 68 167
77 0 9 -59 -9 -79 -25 -11 -8 -13 -8 -8 1 4 6 -4 36 -17 67 -21 47 -22 57 -10
67 27 22 15 70 -42 171 l-55 98 -50 -25 -49 -25 -49 25 -49 25 -55 -94z m98
57 c40 -19 40 -20 15 -88 -15 -40 -19 -45 -19 -23 -1 15 -6 30 -11 33 -10 6
-7 -21 6 -63 2 -8 -1 -10 -8 -6 -8 5 -9 -2 -4 -22 6 -26 6 -27 -6 -11 -12 16
-13 15 -14 -8 -1 -14 2 -22 8 -19 6 4 5 -3 -1 -15 -23 -42 -125 -12 -108 31 4
9 6 7 6 -4 2 -29 71 -53 85 -29 3 4 -6 6 -19 3 -31 -6 -55 13 -55 44 0 16 6
24 18 24 14 0 15 2 2 10 -11 7 -18 3 -27 -13 -7 -12 -12 -18 -13 -14 0 19 22
47 32 41 7 -5 9 -2 5 8 -6 16 4 17 36 3 21 -9 47 0 47 16 0 8 -4 8 -15 -1 -13
-10 -19 -10 -33 4 -10 9 -22 13 -26 9 -4 -5 7 18 26 49 18 32 34 58 35 58 1 0
18 -8 38 -17z m181 -37 c29 -50 30 -54 12 -65 -27 -17 -46 -13 -53 9 -4 11
-10 18 -15 15 -5 -3 -11 3 -13 12 -3 10 -3 -4 -1 -32 l5 -50 -21 60 c-11 33
-20 63 -20 66 0 5 59 37 70 38 3 0 19 -24 36 -53z m13 -83 c26 13 29 13 24 -1
-4 -10 -2 -13 5 -8 6 3 16 -2 21 -13 12 -22 2 -60 -22 -79 -18 -16 -80 -9 -85
9 -3 11 -2 12 6 1 6 -10 9 -5 8 16 -1 17 -4 28 -7 26 -9 -5 -19 22 -19 48 0
20 1 20 19 4 18 -16 23 -17 50 -3z"/>
<path d="M1440 1620 c0 -5 5 -10 11 -10 5 0 7 5 4 10 -3 6 -8 10 -11 10 -2 0
-4 -4 -4 -10z"/>
<path d="M1370 1479 c0 -5 5 -7 10 -4 6 3 10 8 10 11 0 2 -4 4 -10 4 -5 0 -10
-5 -10 -11z"/>
<path d="M1660 1540 c-13 -8 -12 -10 3 -10 9 0 17 -5 17 -12 0 -6 3 -9 6 -5 3
3 2 12 -3 21 -6 10 -13 12 -23 6z"/>
<path d="M1650 1489 c0 -5 5 -7 10 -4 6 3 10 8 10 11 0 2 -4 4 -10 4 -5 0 -10
-5 -10 -11z"/>
<path d="M1615 1480 c3 -5 8 -10 11 -10 2 0 4 5 4 10 0 6 -5 10 -11 10 -5 0
-7 -4 -4 -10z"/>
</g>
</svg>
